<svg width="11" height="20" viewBox="0 0 11 20" fill="none" xmlns="http://www.w3.org/2000/svg">
<path d="M10.6667 5.33333C10.6667 3.91885 10.1048 2.56229 9.10457 1.5621C8.10437 0.561903 6.74782 0 5.33333 0C3.91885 0 2.56229 0.561903 1.5621 1.5621C0.561903 2.56229 0 3.91885 0 5.33333C0 8.01067 1.97867 10.2059 4.54933 10.5877C4.54613 10.6155 4.53333 10.6389 4.53333 10.6667V19.2C4.53333 19.4122 4.61762 19.6157 4.76765 19.7657C4.91768 19.9157 5.12116 20 5.33333 20C5.54551 20 5.74899 19.9157 5.89902 19.7657C6.04905 19.6157 6.13333 19.4122 6.13333 19.2V10.6667C6.13333 10.6389 6.12053 10.6144 6.11733 10.5877C8.688 10.2059 10.6667 8.01067 10.6667 5.33333Z" fill="#999999"/>
</svg>
