<svg width="24" height="17" viewBox="0 0 24 17" fill="none" xmlns="http://www.w3.org/2000/svg">
<path d="M11.756 16.992H11.7498C11.0402 16.9872 4.76784 16.93 2.99076 16.4494C1.7488 16.1155 0.768429 15.1362 0.433633 13.8941C-0.0313608 12.1483 -0.00173902 8.78735 0.00147575 8.51892C-0.00155532 8.25182 -0.0315445 4.86303 0.432255 3.10295C0.432715 3.10134 0.433128 3.09955 0.433633 3.09794C0.764617 1.86999 1.76712 0.860319 2.98772 0.525569C2.99076 0.524651 2.99397 0.523962 2.99705 0.52309C4.75406 0.0613563 11.0388 0.00482216 11.7498 0H11.7625C12.4738 0.00482216 18.7629 0.0620911 20.5237 0.543388C21.7624 0.876347 22.742 1.85442 23.0777 3.09495C23.5601 4.85624 23.5154 8.25237 23.5106 8.53908C23.514 8.82143 23.5422 12.1523 23.0798 13.9067C23.0795 13.9086 23.079 13.9102 23.0786 13.9118C22.7437 15.1539 21.7635 16.1332 20.5201 16.4674C20.5184 16.468 20.5166 16.4684 20.515 16.4689C18.7582 16.9305 12.4733 16.987 11.7625 16.992H11.7561H11.756ZM2.20787 3.57409C1.79959 5.12766 1.83817 8.47322 1.83849 8.50693V8.53118C1.82632 9.45901 1.86917 12.146 2.20805 13.4186C2.37237 14.0281 2.85587 14.5108 3.46902 14.6756C4.78019 15.0303 9.88892 15.1419 11.756 15.155C13.628 15.1419 18.7442 15.0334 20.0457 14.6929C20.6569 14.5275 21.1388 14.0464 21.3042 13.4362C21.6434 12.1449 21.6859 9.471 21.6736 8.54909C21.6736 8.53945 21.6736 8.52971 21.6738 8.52007C21.6906 7.58108 21.6574 4.86271 21.3058 3.57988C21.3054 3.57863 21.3051 3.57736 21.3049 3.57607C21.1399 2.96397 20.6562 2.48121 20.0431 2.31634C18.7446 1.96133 13.6277 1.8501 11.756 1.83701C9.88529 1.8501 4.77413 1.95849 3.46865 2.29856C2.86717 2.46546 2.37274 2.9654 2.20787 3.57409ZM9.41474 12.2158V4.77605L15.8443 8.496L9.41474 12.2158Z" fill="#999999"/>
</svg>
